<mxfile host="app.diagrams.net">
  <diagram name="Greatest of Three Numbers" id="T7fLgyQF5VSGToSz7OCU">
    <mxGraphModel dx="1000" dy="800" grid="1" gridSize="10" guides="1" tooltips="1" connect="1" arrows="1" fold="1" page="1" pageScale="1" pageWidth="850" pageHeight="1100" math="0" shadow="0">
      <root>
        <mxCell id="0" />
        <mxCell id="1" parent="0" />
        <mxCell id="start" value="Start" style="ellipse;whiteSpace=wrap;html=1;aspect=fixed;" vertex="1" parent="1">
          <mxGeometry x="160" y="50" width="120" height="60" as="geometry" />
        </mxCell>
        <mxCell id="input" value="Input: num1, num2, num3" style="shape=rectangle;whiteSpace=wrap;html=1;" vertex="1" parent="1">
          <mxGeometry x="120" y="140" width="200" height="60" as="geometry" />
        </mxCell>
        <mxCell id="display" value="Display: num1, num2, num3" style="shape=rectangle;whiteSpace=wrap;html=1;" vertex="1" parent="1">
          <mxGeometry x="120" y="240" width="200" height="60" as="geometry" />
        </mxCell>
        <mxCell id="compare1" value="Is num1 &gt; num2 and num3?" style="rhombus;whiteSpace=wrap;html=1;" vertex="1" parent="1">
          <mxGeometry x="120" y="340" width="200" height="80" as="geometry" />
        </mxCell>
        <mxCell id="num1_greatest" value="The 1st Number is the greatest" style="shape=rectangle;whiteSpace=wrap;html=1;" vertex="1" parent="1">
          <mxGeometry x="40" y="480" width="220" height="60" as="geometry" />
        </mxCell>
        <mxCell id="compare2" value="Is num2 &gt; num1 and num3?" style="rhombus;whiteSpace=wrap;html=1;" vertex="1" parent="1">
          <mxGeometry x="320" y="340" width="200" height="80" as="geometry" />
        </mxCell>
        <mxCell id="num2_greatest" value="The 2nd Number is the greatest" style="shape=rectangle;whiteSpace=wrap;html=1;" vertex="1" parent="1">
          <mxGeometry x="320" y="480" width="220" height="60" as="geometry" />
        </mxCell>
        <mxCell id="num3_greatest" value="The 3rd Number is the greatest" style="shape=rectangle;whiteSpace=wrap;html=1;" vertex="1" parent="1">
          <mxGeometry x="160" y="620" width="220" height="60" as="geometry" />
        </mxCell>
        <mxCell id="end" value="End" style="ellipse;whiteSpace=wrap;html=1;aspect=fixed;" vertex="1" parent="1">
          <mxGeometry x="180" y="740" width="120" height="60" as="geometry" />
        </mxCell>
        <mxCell id="edge1" edge="1" parent="1" source="start" target="input">
          <mxGeometry relative="1" as="geometry" />
        </mxCell>
        <mxCell id="edge2" edge="1" parent="1" source="input" target="display">
          <mxGeometry relative="1" as="geometry" />
        </mxCell>
        <mxCell id="edge3" edge="1" parent="1" source="display" target="compare1">
          <mxGeometry relative="1" as="geometry" />
        </mxCell>
        <mxCell id="edge4" edge="1" parent="1" source="compare1" target="num1_greatest">
          <mxGeometry relative="1" as="geometry">
            <mxPoint x="80" y="410" as="sourcePoint" />
            <mxPoint x="40" y="450" as="targetPoint" />
          </mxGeometry>
        </mxCell>
        <mxCell id="edge5" edge="1" parent="1" source="compare1" target="compare2">
          <mxGeometry relative="1" as="geometry">
            <mxPoint x="320" y="410" as="targetPoint" />
          </mxGeometry>
        </mxCell>
        <mxCell id="edge6" edge="1" parent="1" source="compare2" target="num2_greatest">
          <mxGeometry relative="1" as="geometry">
            <mxPoint x="360" y="450" as="sourcePoint" />
            <mxPoint x="320" y="450" as="targetPoint" />
          </mxGeometry>
        </mxCell>
        <mxCell id="edge7" edge="1" parent="1" source="compare2" target="num3_greatest">
          <mxGeometry relative="1" as="geometry" />
        </mxCell>
        <mxCell id="edge8" edge="1" parent="1" source="num1_greatest" target="end">
          <mxGeometry relative="1" as="geometry" />
        </mxCell>
        <mxCell id="edge9" edge="1" parent="1" source="num2_greatest" target="end">
          <mxGeometry relative="1" as="geometry" />
        </mxCell>
        <mxCell id="edge10" edge="1" parent="1" source="num3_greatest" target="end">
          <mxGeometry relative="1" as="geometry" />
        </mxCell>
      </root>
    </mxGraphModel>
  </diagram>
</mxfile>
